<?xml version="1.0"?>
<svg xmlns="http://www.w3.org/2000/svg" height="512px" viewBox="0 0 52 58" width="512px" class=""><g><g id="Page-1" fill="none" fill-rule="evenodd"><g id="007---Beer-Gaming" fill-rule="nonzero"><path id="Shape" d="m15 5h9c.828 2.463.81 2.337.81 2.62 0 .985-.81 1-.81 1.95v10.5c.0096595.9064812.4241569 1.7611529 1.13 2.33 2.4564058 2.0606449 3.8735821 5.1037289 3.87 8.31l.0000068 2.29h-14.0000068z" fill="#14a085" data-original="#14A085" class="" style="fill:#23264D" data-old_color="#14a085"/><path id="Shape" d="m15 11h9v4c0 2.21-2.23 4-5 4-1.4982881.0378128-2.9456883-.5447657-4-1.61z" fill="#33907c" data-original="#33907C" class="" style="fill:#1B1D3A" data-old_color="#33907c"/><path id="Shape" d="m14.5.4c.4572168-.26026741.9738987-.39804924 1.5-.4h6c1.6568542 0 3 1.34314575 3 3v1c0 .55228475-.4477153 1-1 1h-9z" fill="#f0c419" data-original="#F0C419" class="" style="fill:#E75118" data-old_color="#f0c419"/><path id="Shape" d="m29 41v14c0 1.6568542-1.3431458 3-3 3h-9v-18z" fill="#14a085" data-original="#14A085" class="" style="fill:#23264D" data-old_color="#14a085"/><path id="Shape" d="m20 31.68v-.97c.0026284-3.2082424-1.4186263-6.2522183-3.88-8.31-.7015367-.5712411-1.1120913-1.4253412-1.12-2.33v-10.5c-.0025691-.3639747.1416199-.71363322.4-.97.3612628-.36927724.4883071-.90825271.33-1.4l-.73-2.2h-10l-.74 2.2c-.16041528.49166088-.03311053 1.03174164.33 1.4.539.539.41 1.059.41 2.4v9.07c-.00965947.9064812-.42415693 1.7611529-1.13 2.33-2.45640583 2.0606449-3.87358212 5.1037289-3.87 8.31v24.29c0 1.6568542 1.34314575 3 3 3h14c.2634951-.0049453.5254138-.0418825.78-.11z" fill="#26b99a" data-original="#26B99A" class="" style="fill:#353A78" data-old_color="#26b99a"/><path id="Shape" d="m15 11h-10v4c0 2.21 2.23 4 5 4 1.7907587.0684557 3.4907958-.7891186 4.5-2.27.3244135-.5188998.4975754-1.1180398.5-1.73z" fill="#14a085" data-original="#14A085" class="" style="fill:#23264D" data-old_color="#14a085"/><path id="Shape" d="m7 0h6c1.6568542 0 3 1.34314575 3 3v1c0 .55228475-.4477153 1-1 1h-10c-.55228475 0-1-.44771525-1-1v-1c0-1.65685425 1.34314575-3 3-3z" fill="#f3d55b" data-original="#F3D55B" class="" style="fill:#EF784A" data-old_color="#f3d55b"/><path id="Shape" d="m18 50h-18v-17h18.11z" fill="#f0c419" data-original="#F0C419" class="" style="fill:#E75118" data-old_color="#f0c419"/><path id="Shape" d="m12 40h-5.009c-.55228475 0-1-.4477153-1-1s.44771525-1 1-1h5.009c.5522847 0 1 .4477153 1 1s-.4477153 1-1 1z" fill="#ecf0f1" data-original="#ECF0F1" class=""/><path id="Shape" d="m11 45h-3c-.55228475 0-1-.4477153-1-1s.44771525-1 1-1h3c.5522847 0 1 .4477153 1 1s-.4477153 1-1 1z" fill="#ecf0f1" data-original="#ECF0F1" class=""/><path id="Shape" d="m4 31c-.55228475 0-1-.4477153-1-1 0-3.5 3.305-5.738 3.445-5.832.45922477-.3070703 1.08042966-.1837247 1.38749998.2755.30707031.4592248.18372477 1.0804297-.27549998 1.3875-.026.017-2.557 1.754-2.557 4.169 0 .5522847-.44771525 1-1 1z" fill="#81ccb8" data-original="#81CCB8" class="" style="fill:#484C7C" data-old_color="#81ccb8"/><path id="Shape" d="m41.002 32.995-1 12h-14l-.08-.96-.03-.41-.89-10.63z" fill="#35495e" data-original="#35495E" class=""/><path id="Shape" d="m27.532 44.165-.27.83-3.1 9.47c-.6033734 1.4639112-1.7929461 2.6077385-3.2793812 3.1532715-1.486435.5455331-3.1335129.4427783-4.5406188-.2832715-1.760558-1.060587-2.6588297-3.1177895-2.24-5.13l1.66-8.2.71-3.48v-.01l9.42 3.11.51.17z" fill="#35495e" data-original="#35495E" class=""/><path id="Shape" d="m38.131 43.125 3.713 11.34c.6033734 1.4639112 1.7929461 2.6077385 3.2793812 3.1532715 1.486435.5455331 3.1335129.4427783 4.5406188-.2832715 1.760558-1.060587 2.6588297-3.1177895 2.24-5.13l-2.37-11.68v-.01z" fill="#35495e" data-original="#35495E" class=""/><path id="Shape" d="m41.784 44.885c3.294406.5918929 6.5454689-1.2370922 7.75-4.36v-.01c1.2693701-3.2846783-.0989604-7.0010128-3.1952835-8.6782709-3.0963232-1.6772581-6.9566327-.7932438-9.0144769 2.0643232-2.0578441 2.857567-1.6725358 6.7990144.8997604 9.2039477z" fill="#3f5c6c" data-original="#3F5C6C" class=""/><circle id="Oval" cx="43.006" cy="34.995" fill="#f0c419" r="1" data-original="#F0C419" class="" style="fill:#E75118" data-old_color="#f0c419"/><circle id="Oval" cx="43.006" cy="40.995" fill="#4fba6f" r="1" data-original="#4FBA6F" class="active-path" style="fill:#E75118" data-old_color="#4fba6f"/><circle id="Oval" cx="46.006" cy="37.995" fill="#e64c3c" r="1" data-original="#E64C3C" class="" style="fill:#E75118" data-old_color="#e64c3c"/><circle id="Oval" cx="40.006" cy="37.995" fill="#2fa8cc" r="1" data-original="#2FA8CC" class="" style="fill:#E75118" data-old_color="#2fa8cc"/><circle id="Oval" cx="39.006" cy="45.995" fill="#547580" r="3" data-original="#547580" class=""/><path id="Shape" d="m30 37.995c-.0010694 1.9371328-.8048234 3.7872151-2.22 5.11l-1.38.69-.48.24-1.7.85c-.402465.0743407-.8107325.1128249-1.22.115-2.8880663-.007675-5.4777844-1.7804223-6.53-4.47v-.01c-1.3215399-3.419057.2238332-7.2781242 3.54-8.84.9322804-.4502575 1.954688-.6827783 2.99-.68 3.8625706.0082504 6.9917496 3.1374294 7 7z" fill="#3f5c6c" data-original="#3F5C6C" class=""/><circle id="Oval" cx="27.006" cy="45.995" fill="#547580" r="3" data-original="#547580" class=""/><g fill="#95a5a5"><path id="Shape" d="m23.006 36.995c-.5522847 0-1-.4477153-1-1v-1c0-.5522847.4477153-1 1-1s1 .4477153 1 1v1c0 .5522847-.4477153 1-1 1z" data-original="#95A5A5" class="" style="fill:#95A5A5"/><path id="Shape" d="m23.006 42c-.5522847 0-1-.4477153-1-1v-1c0-.5522847.4477153-1 1-1s1 .4477153 1 1v1c0 .5522847-.4477153 1-1 1z" data-original="#95A5A5" class="" style="fill:#95A5A5"/><path id="Shape" d="m26.006 38.995h-1c-.5522847 0-1-.4477153-1-1s.4477153-1 1-1h1c.5522847 0 1 .4477153 1 1s-.4477153 1-1 1z" data-original="#95A5A5" class="" style="fill:#95A5A5"/><path id="Shape" d="m21.006 38.995h-1c-.5522847 0-1-.4477153-1-1s.4477153-1 1-1h1c.5522847 0 1 .4477153 1 1s-.4477153 1-1 1z" data-original="#95A5A5" class="" style="fill:#95A5A5"/></g></g></g></g> </svg>
