<svg xmlns="http://www.w3.org/2000/svg" height="512" viewBox="0 0 58 58" width="512" class=""><g><g id="Page-1" fill="none" fill-rule="evenodd"><g id="018---Love-Gaming" fill-rule="nonzero" transform="translate(-1)"><path id="Shape" d="m49.99 11.21-.39.74-3.72 7.19-3.18 6.12c-3.33 3.39-7.69 7.1-12.7 11.74-5.01-4.63-9.36-8.34-12.71-11.73l-3.19-6.16-3.7-7.14-.39-.75v-.01c.01-.38.03-.76.07-1.13v-.02c.6-5.6 4.49-10.06 9.92-10.06 6.93 0 10 6.66 10 6.66s3.07-6.66 10-6.66c5.43 0 9.32 4.46 9.92 10.06v.02c.04.37.06.75.07 1.13z" fill="#df4d60" data-original="#DF4D60" class=""></path><path id="Shape" d="m49.92 10.06v.02c-.0660286.6296095-.1729207 1.2542602-.32 1.87l-3.72 7.19c-4.0679725 4.4534659-9.848954 6.9507917-15.88 6.86-6.0439747.0955195-11.8367257-2.4146726-15.9-6.89l-3.7-7.14c-.1470879-.6224856-.2539753-1.2537894-.32-1.89v-.02c.6-5.6 4.49-10.06 9.92-10.06 6.93 0 10 6.66 10 6.66s3.07-6.66 10-6.66c5.43 0 9.32 4.46 9.92 10.06z" fill="#ff5364" data-original="#FF5364" class=""></path><path id="Shape" d="m12.35 29.68c1.84-1.66 3.5-3.09 4.94-4.41 3.53-3.23 5.71-5.73 5.71-9.01 0-3.39-2.24-6.26-5.5-6.26-3.81 0-5.5 3.6-5.5 3.6s-1.69-3.6-5.5-3.6c-3.26 0-5.5 2.87-5.5 6.26 0 4.49 4.08 7.52 10.13 12.96z" fill="#fb7b76" data-original="#FB7B76" class=""></path><path id="Shape" d="m47.65 29.68c-1.84-1.66-3.5-3.09-4.94-4.41-3.53-3.23-5.71-5.73-5.71-9.01 0-3.39 2.24-6.26 5.5-6.26 3.81 0 5.5 3.6 5.5 3.6s1.69-3.6 5.5-3.6c3.26 0 5.5 2.87 5.5 6.26 0 4.49-4.08 7.52-10.13 12.96z" fill="#fb7b76" data-original="#FB7B76" class=""></path><path id="Shape" d="m30 49.55c-.0716304 2.2133509-1.0087733 4.3102529-2.61 5.84-2.8 2.8-7.29 3.9-10.69.5s-2.7-4.1-6.1-7.49-4.09-2.7-7.49-6.1-2.3-7.89.5-10.69 7.29-3.9 10.69-.5c3.15 3.15 2.78 3.98 5.4 6.77.21.23.45.47.7.72s.49.49.72.7c2.79 2.62 3.62 2.25 6.77 5.4 1.3355548 1.2611002 2.0977971 3.0131736 2.11 4.85z" fill="#95a5a5" data-original="#95A5A5" class="active-path" style="fill:#23264D" data-old_color="#95a5a5"></path><path id="Shape" d="m56.89 42.3c-3.4 3.4-4.1 2.7-7.49 6.1s-2.7 4.09-6.1 7.49-7.89 2.3-10.69-.5c-1.6012267-1.5297471-2.5383696-3.6266491-2.61-5.84.0122029-1.8368264.7744452-3.5888998 2.11-4.85 3.15-3.15 3.98-2.78 6.77-5.4.23-.21.47-.45.72-.7s.49-.49.7-.72c2.62-2.79 2.25-3.62 5.4-6.77 3.4-3.4 7.89-2.3 10.69.5s3.9 7.29.5 10.69z" fill="#95a5a5" data-original="#95A5A5" class="active-path" style="fill:#23264D" data-old_color="#95a5a5"></path><path id="Shape" d="m12.011 34.4c-.3904999-.3903819-1.0235001-.3903819-1.414 0l-1.391 1.392-1.392-1.392c-.39237889-.3789722-1.01608478-.3735524-1.40181858.0121814-.38573379.3857338-.39115363 1.0094397-.01218142 1.4018186l1.392 1.392-1.392 1.394c-.25995658.2510745-.3642126.6228779-.27269716.9725073.09151544.3496295.3645604.6226744.71418984.7141899.34962943.0915154.72143285-.0127406.97250732-.2726972l1.392-1.394 1.394 1.391c.3962528.3461209.9929327.3259971 1.3649649-.0460351s.392156-.9687121.0460351-1.3649649l-1.391-1.394 1.391-1.392c.3903819-.3904999.3903819-1.0235001 0-1.414z" fill="#bdc3c7" data-original="#BDC3C7" class=""></path><path id="Shape" d="m19.005 48.388c-.3942523-.3633867-1.0049419-.3511685-1.3843438.0276968s-.3924845.989537-.0296562 1.3843032l1.4 1.4c.3967422.3455685.9934009.3246032 1.3649095-.04796.3715086-.3725633.3907824-.969279.0440905-1.36504z" fill="#e64c3c" data-original="#E64C3C" class="" style="fill:#F77949" data-old_color="#e64c3c"></path><path id="Shape" d="m24.6 48.388c-.3942523-.3633867-1.0049419-.3511685-1.3843438.0276968s-.3924845.989537-.0296562 1.3843032l1.4 1.4c.3935832.3696018 1.0094904.3600364 1.3914063-.0216094s.391917-.997546.0225937-1.3913906z" fill="#e64c3c" data-original="#E64C3C" class="" style="fill:#F77949" data-old_color="#e64c3c"></path><path id="Shape" d="m52.208 37.206 1.392-1.392c.3789722-.3923789.3735524-1.0160848-.0121814-1.4018186s-1.0094397-.3911536-1.4018186-.0121814l-1.392 1.392-1.394-1.392c-.3923789-.3789722-1.0160848-.3735524-1.4018186.0121814s-.3911536 1.0094397-.0121814 1.4018186l1.391 1.392-1.388 1.394c-.2812038.2456273-.4021472.627455-.3136404.9901876s.3717202.645946.7344528.7344528.7445603-.0324366.9901876-.3136404l1.391-1.391 1.392 1.391c.3915609.37989 1.0153474.3758335 1.4019346-.0091167.3865871-.3849503.3932904-1.008714.0150654-1.4018833z" fill="#bdc3c7" data-original="#BDC3C7" class=""></path><path id="Shape" d="m41 48.388-1.4 1.4c-.278961.2461955-.3981739.6269099-.3094468.9882393.088727.3613294.370722.6435243.7319885.7325073s.7420652-.0299601.9884583-.3087466l1.4-1.4c.3498191-.39581.3314503-.9954343-.0419404-1.3690896-.3733908-.3736554-.9730018-.392449-1.3690596-.0429104z" fill="#e64c3c" data-original="#E64C3C" class="" style="fill:#F77949" data-old_color="#e64c3c"></path><path id="Shape" d="m35.4 48.388-1.4 1.4c-.2595768.2514473-.3632881.623386-.271275.9728705.092013.3494846.3654323.6221315.7151758.7131556.3497434.091024.7213872-.013739.9720992-.2740261l1.4-1.4c.3784551-.3929089.3721707-1.0166378-.0141242-1.4018415-.3862949-.3852036-1.0100391-.3897235-1.4018758-.0101585z" fill="#e64c3c" data-original="#E64C3C" class="" style="fill:#F77949" data-old_color="#e64c3c"></path><g fill="#7f8c8d"><path id="Shape" d="m21.12 39.3-2.41 2.41c-.3943361.3867403-1.0256639.3867403-1.42 0-.3899779-.3930079-.3899779-1.0269921 0-1.42l2.41-2.41c.21.23.45.47.7.72s.49.49.72.7z" data-original="#7F8C8D" class="" style="fill:#7F8C8D"></path><path id="Shape" d="m42.71 41.71c-.3943361.3867403-1.0256639.3867403-1.42 0l-2.41-2.41c.23-.21.47-.45.72-.7s.49-.49.7-.72l2.41 2.41c.3899779.3930079.3899779 1.0269921 0 1.42z" data-original="#7F8C8D" class="" style="fill:#7F8C8D"></path></g></g></g></g> </svg>