<svg xmlns="http://www.w3.org/2000/svg" height="512" viewBox="0 0 58 58" width="512" class=""><g><g id="Page-1" fill="none" fill-rule="evenodd"><g id="008---Board-Games" fill-rule="nonzero"><path id="Shape" d="m15.5.5 8 3.4c.5083144.21516229.7490364.79913586.54 1.31l-8.673 20.941z" fill="#24ae5f" data-original="#24AE5F" class=""></path><path id="Shape" d="m58 54v3c0 .5522847-.4477153 1-1 1h-56c-.55228475 0-1-.4477153-1-1v-3l29-2z" fill="#7f8c8d" data-original="#7F8C8D" class=""></path><path id="Shape" d="m13.76 26h-12.76c-.55228475 0-1-.4477153-1-1v-24c0-.55228475.44771525-1 1-1h14c.5522847 0 1 .44771525 1 1v22.76z" fill="#4fba6f" data-original="#4FBA6F" class=""></path><path id="Shape" d="m9 12.1v-5.916c1.1943509.42225455 1.9947486 1.54921457 2 2.816 0 .55228475.4477153 1 1 1s1-.44771525 1-1c-.0029983-2.37510083-1.6735832-4.42156735-4-4.9v-.1c0-.55228475-.44771525-1-1-1s-1 .44771525-1 1v.1c-2.33032398.47319247-4.00501256 2.52211839-4.00501256 4.9 0 2.3778816 1.67468858 4.4268075 4.00501256 4.9v5.917c-1.1946951-.4223781-1.99517007-1.5498471-2-2.817 0-.5522847-.44771525-1-1-1s-1 .4477153-1 1c.00299829 2.3751008 1.6735832 4.4215673 4 4.9v.1c0 .5522847.44771525 1 1 1s1-.4477153 1-1v-.1c2.330324-.4731925 4.0050126-2.5221184 4.0050126-4.9s-1.6746886-4.4268075-4.0050126-4.9zm-4-3.1c.00525139-1.26678543.80564913-2.39374545 2-2.816v5.632c-1.19435087-.4222546-1.99474861-1.5492146-2-2.816zm4 10.816v-5.632c1.1981296.4174114 2.0009455 1.5472421 2.0009455 2.816s-.8028159 2.3985886-2.0009455 2.816z" fill="#ecf0f1" data-original="#ECF0F1" class=""></path><path id="Shape" d="m42 37h5.43c.3524335.0024371.6782152.1880569.86.49l9.71 16.51h-58l9.71-16.51c.18178476-.3019431.5075665-.4875629.86-.49z" fill="#95a5a5" data-original="#95A5A5" class=""></path><path id="Shape" d="m33 14.76v-12.76c.0032948-1.10320187.8967981-1.9967052 2-2h21c1.1032019.0032948 1.9967052.89679813 2 2v21c-.0032948 1.1032019-.8967981 1.9967052-2 2h-13.76z" fill="#ecf0f1" data-original="#ECF0F1" class=""></path><g fill="#35495e"><circle id="Oval" cx="39.5" cy="6.5" r="2.5" data-original="#35495E" class="" style="fill:#23264D" data-old_color="#35495E"></circle><circle id="Oval" cx="51.5" cy="6.5" r="2.5" data-original="#35495E" class="" style="fill:#23264D" data-old_color="#35495E"></circle><path id="Shape" d="m39.23 20.99c.0897458.0083237.1798843.0116621.27.01 1.3807119 0 2.5-1.1192881 2.5-2.5s-1.1192881-2.5-2.5-2.5-2.5 1.1192881-2.5 2.5c-.0016621.0901157.0016763.1802542.01.27z" data-original="#35495E" class="" style="fill:#23264D" data-old_color="#35495E"></path><circle id="Oval" cx="45.5" cy="12.5" r="2.5" data-original="#35495E" class="" style="fill:#23264D" data-old_color="#35495E"></circle><circle id="Oval" cx="51.5" cy="18.5" r="2.5" data-original="#35495E" class="" style="fill:#23264D" data-old_color="#35495E"></circle></g><path id="Shape" d="m42 28v18c0 .5522847-.4477153 1-1 1h-24c-.5522847 0-1-.4477153-1-1v-18l13-14z" fill="#f0c419" data-original="#F0C419" class="" style="fill:#EC8730" data-old_color="#f0c419"></path><path id="Shape" d="m45.293 32.706-16.293-16.293-16.293 16.293c-.3904999.3903819-1.0235001.3903819-1.414 0l-1.414-1.414c-.18777704-.1875683-.29328666-.4420908-.29328666-.7075s.10550962-.5199317.29328666-.7075l17-17c1.1714996-1.1711458 3.0705004-1.1711458 4.242 0l17 17c.187777.1875683.2932867.4420908.2932867.7075s-.1055097.5199317-.2932867.7075l-1.414 1.414c-.3904999.3903819-1.0235001.3903819-1.414 0z" fill="#e57e25" data-original="#E57E25" class="" style="fill:#E75118" data-old_color="#e57e25"></path><path id="Shape" d="m26 35h6c.5522847 0 1 .4477153 1 1v11h-8v-11c0-.5522847.4477153-1 1-1z" fill="#a56a43" data-original="#A56A43" class="active-path" data-old_color="#a56a43" style="fill:#ECECEC"></path></g></g></g> </svg>