<svg xmlns="http://www.w3.org/2000/svg" height="512" viewBox="0 0 40 58" width="512" class=""><g><g><g id="Page-1" fill="none" fill-rule="evenodd"><g id="016---Gaming-Location" fill-rule="nonzero"><path id="Shape" d="m25.98 48.36c5.88.74 10.02 2.54 10.02 4.64 0 2.76-7.16 5-16 5s-16-2.24-16-5c0-2.1 4.14-3.9 10.02-4.64z" fill="#4fba6f" data-original="#61CC6A" class="active-path" data-old_color="#4fba6f" style="fill:#54AA5B"></path><path id="Shape" d="m40 20c0 18-20 34-20 34s-20-16-20-34c0-11.045695 8.954305-20 20-20s20 8.954305 20 20z" fill="#e64c3c" data-original="#E75118" class="" style="fill:#E75118" data-old_color="#e64c3c"></path><circle id="Oval" cx="20" cy="20" fill="#ecf0f1" r="16" data-original="#ECF0F1" class=""></circle><path id="Shape" d="m29.58 26.68c-2.032515.8636139-4.3811168-.0740408-5.26-2.1l-.85-1.975c-.1577445-.3668785-.5186466-.604728-.918-.605h-5.1c-.3993534.000272-.7602555.2381215-.918.605l-.85 1.975c-.8726099 2.0324078-3.2275921 2.9726098-5.26 2.0999999-2.03240782-.8726099-2.97260985-3.227592-2.1-5.2599999l3-7c.6315523-1.4688488 2.0771333-2.4205098 3.676-2.42h10c1.6003194-.00211 3.0478747.9498149 3.68 2.42l3 7c.8719211 2.0324167-.0680855 4.3869093-2.1 5.26z" fill="#35495e" data-original="#161942F0" class="" style="fill:#161942F0" data-old_color="#35495e"></path><g fill="#547580"><path id="Shape" d="m16 18c-.5522847 0-1-.4477153-1-1v-1c0-.5522847.4477153-1 1-1s1 .4477153 1 1v1c0 .5522847-.4477153 1-1 1z" data-original="#F67645" class="" style="fill:#F67645" data-old_color="#547580"></path><path id="Shape" d="m24 18c-.5522847 0-1-.4477153-1-1v-1c0-.5522847.4477153-1 1-1s1 .4477153 1 1v1c0 .5522847-.4477153 1-1 1z" data-original="#F67645" class="" style="fill:#F67645" data-old_color="#547580"></path></g></g></g></g></g> </svg>