<?xml version="1.0" encoding="iso-8859-1"?>
<!-- Generator: Adobe Illustrator 19.0.0, SVG Export Plug-In . SVG Version: 6.00 Build 0)  -->
<svg version="1.1" id="Capa_1" xmlns="http://www.w3.org/2000/svg" xmlns:xlink="http://www.w3.org/1999/xlink" x="0px" y="0px"
	 viewBox="0 0 512 512" style="enable-background:new 0 0 512 512;" xml:space="preserve">
<path style="fill:#5AAAE7;" d="M14.973,170.678C62.011,37.483,208.108-32.372,341.305,14.666
	C474.5,61.703,544.35,207.819,497.312,341.015c-29.25,82.824-96.822,141.17-175.804,162.142
	C123.896,555.789-53.416,364.332,14.973,170.678z"/>
<path style="fill:#3D9AE2;" d="M336.157,498.797c-4.832,1.6-9.717,3.054-14.643,4.362C123.895,555.79-53.412,364.331,14.971,170.676
	C61.463,39.014,204.766-30.761,336.711,13.096c-72.347,24.077-133.21,80.119-160.572,157.581
	C125.599,313.802,209.264,455.735,336.157,498.797z"/>
<path style="fill:#A4E276;" d="M433.345,216.53L402.72,352.02c-4.592,20.249-17.906,37.424-36.367,46.931l-60.319,30.97
	c-15.501,7.97-33.543-4.916-31.033-22.163l10.407-71.281c6.819-46.732-8.022-78.769-10.135-88.758
	c-22.132-74.804-92.356-87.307-94.709-88.664l-69.304-21.128c-15.564-4.759-24.077-21.494-18.733-36.869l19.632-56.627
	c49.909-34.149,110.027-49.111,170.247-43.04l8.493,16.756c2.238,4.424,3.127,9.173,2.814,13.775
	c-0.638,9.215-6.066,17.833-14.999,22.132l-20.113,9.644c-16.609,7.98-21.044,29.59-8.901,43.469
	c5.983,5,43.731,63.771,125.857,73.446l35.342,4.173C426.306,186.606,436.765,201.374,433.345,216.53z"/>
<g>
	<path style="fill:#91DC5A;" d="M293.713,31.922c-49.588,27.341-90.327,71.165-113.149,127.133l-69.304-21.128
		c-15.564-4.759-24.077-21.494-18.733-36.869l19.632-56.627C160.187,11.57,220.025-4.897,282.406,1.392l8.493,16.756
		C293.137,22.572,294.026,27.32,293.713,31.922z"/>
	<path style="fill:#91DC5A;" d="M224.642,472.142c-0.031,12.855-6.893,15.25-14.967,23.377c-3.608,3.64-7.552,6.935-11.767,9.853
		C87.3,479.296,3.395,379.399,0.122,263.572c26.891-0.314,51.063,9.204,77.713-30.426c6.516-9.696,9.717-22.163,19.517-29.736
		c9.706-7.51,17.98-9.173,30.05-6.757c23.941,4.801,47.58,21.023,58.74,42.988c7.039,13.869,14.005,39.766,9.487,54.943
		c-3.169,10.627-9.56,19.956-14.507,29.778c-13.587,26.943-21.965,64.001-1.088,88.528c10.031,11.788,23.638,20.134,33.564,32.016
		C219.799,452.322,224.684,462.289,224.642,472.142z"/>
</g>
<path style="fill:#A4E276;" d="M195.628,294.584c-3.169,10.627-9.56,19.956-14.507,29.778c-2.217,4.393-4.288,9.047-6.129,13.88
	c-13.325-38.469-17.582-80.757-10.198-124.079c8.89,6.997,16.369,15.668,21.348,25.479
	C193.18,253.51,200.146,279.407,195.628,294.584z"/>
<g>
</g>
<g>
</g>
<g>
</g>
<g>
</g>
<g>
</g>
<g>
</g>
<g>
</g>
<g>
</g>
<g>
</g>
<g>
</g>
<g>
</g>
<g>
</g>
<g>
</g>
<g>
</g>
<g>
</g>
</svg>
