<?xml version="1.0" encoding="iso-8859-1"?>
<!-- Generator: Adobe Illustrator 19.0.0, SVG Export Plug-In . SVG Version: 6.00 Build 0)  -->
<svg version="1.1" id="Capa_1" xmlns="http://www.w3.org/2000/svg" xmlns:xlink="http://www.w3.org/1999/xlink" x="0px" y="0px"
	 viewBox="0 0 512 512" style="enable-background:new 0 0 512 512;" xml:space="preserve">
<polygon style="fill:#FF6243;" points="454.531,131.918 454.531,82.286 404.898,82.286 404.898,32.653 355.265,32.653 
	355.265,82.286 305.633,82.286 305.633,131.918 256,131.918 206.367,131.918 206.367,82.286 156.735,82.286 156.735,32.653 
	107.102,32.653 107.102,82.286 57.469,82.286 57.469,131.918 7.837,131.918 7.837,181.551 7.837,231.184 57.469,231.184 
	57.469,280.816 107.102,280.816 107.102,330.449 156.735,330.449 156.735,380.082 206.367,380.082 206.367,429.714 231.184,429.714 
	231.184,479.347 280.816,479.347 280.816,429.714 305.633,429.714 305.633,380.082 355.265,380.082 355.265,330.449 
	404.898,330.449 404.898,280.816 454.531,280.816 454.531,231.184 504.163,231.184 504.163,181.551 504.163,131.918 "/>
<path d="M462.367,124.082V74.449h-49.633V24.816h-65.306v49.633h-49.633v49.633h-33.959h-15.673h-33.959V74.449h-49.633V24.816
	H99.265v49.633H49.633v49.633H0v49.633v15.673v49.633h49.633v49.633h49.633v49.633h49.633v49.633h49.633v49.633h24.816v49.633
	h65.306v-49.633h24.816v-49.633h49.633v-49.633h49.633v-49.633h49.633V239.02H512v-49.633v-15.673v-49.633H462.367z M446.694,90.122
	v33.959h-33.959V90.122H446.694z M446.694,173.714h-33.959v-33.959h33.959V173.714z M446.694,223.347h-33.959v-33.959h33.959
	V223.347z M397.061,272.98h-33.959V239.02h33.959V272.98z M347.429,322.612h-33.959v-33.959h33.959V322.612z M297.796,372.245
	h-33.959v-33.959h33.959V372.245z M65.306,189.388h33.959v33.959H65.306V189.388z M65.306,139.755h33.959v33.959H65.306V139.755z
	 M114.939,90.122h33.959v33.959h-33.959V90.122z M313.469,139.755h33.959v33.959h-33.959V139.755z M363.102,90.122h33.959v33.959
	h-33.959V90.122z M397.061,139.755v33.959h-33.959v-33.959H397.061z M347.429,189.388v33.959h-33.959v-33.959H347.429z
	 M297.796,223.347h-33.959v-33.959h33.959V223.347z M297.796,272.98h-33.959V239.02h33.959V272.98z M248.163,322.612h-33.959
	v-33.959h33.959V322.612z M114.939,189.388h33.959v33.959h-33.959V189.388z M198.531,223.347h-33.959v-33.959h33.959V223.347z
	 M164.571,239.02h33.959v33.959h-33.959V239.02z M214.204,272.98V239.02h33.959v33.959H214.204z M248.163,223.347h-33.959v-33.959
	h33.959V223.347z M198.531,173.714h-33.959v-33.959h33.959V173.714z M148.898,139.755v33.959h-33.959v-33.959H148.898z
	 M114.939,239.02h33.959v33.959h-33.959V239.02z M164.571,288.653h33.959v33.959h-33.959V288.653z M214.204,338.286h33.959v33.959
	h-33.959V338.286z M263.837,322.612v-33.959h33.959v33.959H263.837z M313.469,272.98V239.02h33.959v33.959H313.469z
	 M363.102,223.347v-33.959h33.959v33.959H363.102z M363.102,40.49h33.959v33.959h-33.959V40.49z M313.469,90.122h33.959v33.959
	h-33.959V90.122z M263.837,139.755h33.959v33.959h-33.959V139.755z M248.163,139.755v33.959h-33.959v-33.959H248.163z
	 M198.531,90.122v33.959h-33.959V90.122H198.531z M114.939,40.49h33.959v33.959h-33.959V40.49z M65.306,90.122h33.959v33.959H65.306
	V90.122z M15.673,139.755h33.959v33.959H15.673V139.755z M15.673,223.347v-33.959h33.959v33.959H15.673z M65.306,272.98V239.02
	h33.959v33.959H65.306z M114.939,322.612v-33.959h33.959v33.959H114.939z M164.571,372.245v-33.959h33.959v33.959H164.571z
	 M214.204,421.878v-33.959h33.959v33.959h-24.816H214.204z M272.98,471.51H239.02v-33.959h9.143h15.673h9.143V471.51z
	 M297.796,421.878h-9.143h-24.816v-33.959h33.959V421.878z M347.429,372.245h-33.959v-33.959h33.959V372.245z M397.061,322.612
	h-33.959v-33.959h33.959V322.612z M446.694,272.98h-33.959V239.02h33.959V272.98z M496.327,223.347h-33.959v-33.959h33.959V223.347z
	 M462.367,173.714v-33.959h33.959v33.959H462.367z"/>
<g>
</g>
<g>
</g>
<g>
</g>
<g>
</g>
<g>
</g>
<g>
</g>
<g>
</g>
<g>
</g>
<g>
</g>
<g>
</g>
<g>
</g>
<g>
</g>
<g>
</g>
<g>
</g>
<g>
</g>
</svg>
