<?xml version="1.0" encoding="iso-8859-1"?>
<!-- Generator: Adobe Illustrator 19.0.0, SVG Export Plug-In . SVG Version: 6.00 Build 0)  -->
<svg version="1.1" id="Capa_1" xmlns="http://www.w3.org/2000/svg" xmlns:xlink="http://www.w3.org/1999/xlink" x="0px" y="0px"
	 viewBox="0 0 512.001 512.001" style="enable-background:new 0 0 512.001 512.001;" xml:space="preserve">
<circle style="fill:#E2472D;" cx="180.252" cy="263.836" r="47.022"/>
<circle style="fill:#FF6243;" cx="180.252" cy="263.836" r="26.123"/>
<circle style="fill:#EEBF00;" cx="54.859" cy="263.836" r="47.022"/>
<circle style="fill:#FFDA44;" cx="54.859" cy="263.836" r="26.123"/>
<circle style="fill:#3E3D42;" cx="410.138" cy="347.431" r="57.471"/>
<circle style="fill:#57565C;" cx="410.138" cy="347.431" r="31.348"/>
<circle style="fill:#2EA35D;" cx="305.644" cy="263.836" r="47.022"/>
<circle style="fill:#3FC378;" cx="305.644" cy="263.836" r="26.123"/>
<circle style="fill:#E2472D;" cx="368.34" cy="154.118" r="47.022"/>
<circle style="fill:#FF6243;" cx="368.34" cy="154.118" r="26.123"/>
<circle style="fill:#EEBF00;" cx="242.948" cy="154.118" r="47.022"/>
<circle style="fill:#FFDA44;" cx="242.948" cy="154.118" r="26.123"/>
<circle style="fill:#2EA35D;" cx="117.555" cy="154.118" r="47.022"/>
<circle style="fill:#3FC378;" cx="117.555" cy="154.118" r="26.123"/>
<circle style="fill:#FF6243;" cx="472.834" cy="305.634" r="31.348"/>
<path style="fill:#E2472D;" d="M485.73,277.064c1.778,3.935,2.777,8.298,2.777,12.897c0,17.314-14.035,31.348-31.348,31.348
	c-4.599,0-8.962-0.999-12.897-2.777c4.918,10.878,15.856,18.451,28.571,18.451c17.314,0,31.348-14.035,31.348-31.348
	C504.182,292.921,496.608,281.983,485.73,277.064z"/>
<path d="M180.252,208.978c-30.249,0-54.859,24.61-54.859,54.859c0,30.249,24.61,54.859,54.859,54.859s54.859-24.61,54.859-54.859
	C235.111,233.589,210.5,208.978,180.252,208.978z M180.252,303.022c-21.607,0-39.185-17.578-39.185-39.185
	s17.578-39.185,39.185-39.185s39.185,17.578,39.185,39.185C219.437,285.445,201.859,303.022,180.252,303.022z"/>
<path d="M180.252,229.877c-18.726,0-33.96,15.234-33.96,33.96c0,18.726,15.234,33.96,33.96,33.96s33.96-15.234,33.96-33.96
	C214.212,245.111,198.978,229.877,180.252,229.877z M180.252,282.124c-10.083,0-18.286-8.204-18.286-18.286
	s8.204-18.286,18.286-18.286s18.286,8.204,18.286,18.286C198.538,273.921,190.334,282.124,180.252,282.124z"/>
<path d="M54.859,208.978C24.61,208.978,0,233.589,0,263.837c0,30.249,24.61,54.859,54.859,54.859s54.859-24.61,54.859-54.859
	C109.718,233.589,85.108,208.978,54.859,208.978z M54.859,303.022c-21.607,0-39.185-17.578-39.185-39.185
	s17.578-39.185,39.185-39.185s39.185,17.578,39.185,39.185C94.044,285.445,76.466,303.022,54.859,303.022z"/>
<path d="M54.859,229.877c-18.726,0-33.96,15.234-33.96,33.96c0,18.726,15.234,33.96,33.96,33.96s33.96-15.234,33.96-33.96
	C88.82,245.111,73.585,229.877,54.859,229.877z M54.859,282.124c-10.083,0-18.286-8.204-18.286-18.286s8.204-18.286,18.286-18.286
	s18.286,8.204,18.286,18.286C73.146,273.921,64.942,282.124,54.859,282.124z"/>
<path d="M305.644,208.978c-30.249,0-54.859,24.61-54.859,54.859c0,30.249,24.61,54.859,54.859,54.859s54.859-24.61,54.859-54.859
	C360.503,233.589,335.893,208.978,305.644,208.978z M305.644,303.022c-21.607,0-39.185-17.578-39.185-39.185
	s17.578-39.185,39.185-39.185s39.185,17.578,39.185,39.185C344.829,285.445,327.251,303.022,305.644,303.022z"/>
<path d="M305.644,229.877c-18.726,0-33.96,15.234-33.96,33.96c0,18.726,15.234,33.96,33.96,33.96s33.96-15.234,33.96-33.96
	C339.604,245.111,324.37,229.877,305.644,229.877z M305.644,282.124c-10.083,0-18.286-8.204-18.286-18.286
	s8.204-18.286,18.286-18.286s18.286,8.204,18.286,18.286C323.93,273.921,315.726,282.124,305.644,282.124z"/>
<path d="M368.34,208.978c30.249,0,54.859-24.61,54.859-54.859S398.589,99.26,368.34,99.26c-30.249,0-54.859,24.61-54.859,54.859
	S338.091,208.978,368.34,208.978z M368.34,114.934c21.607,0,39.185,17.578,39.185,39.185s-17.578,39.185-39.185,39.185
	c-21.607,0-39.185-17.578-39.185-39.185S346.733,114.934,368.34,114.934z"/>
<path d="M368.34,188.079c18.726,0,33.96-15.234,33.96-33.96s-15.234-33.96-33.96-33.96c-18.726,0-33.96,15.234-33.96,33.96
	S349.614,188.079,368.34,188.079z M368.34,135.833c10.083,0,18.286,8.204,18.286,18.286s-8.204,18.286-18.286,18.286
	c-10.083,0-18.286-8.204-18.286-18.286S358.257,135.833,368.34,135.833z"/>
<path d="M297.807,154.119c0-30.249-24.61-54.859-54.859-54.859s-54.859,24.61-54.859,54.859s24.61,54.859,54.859,54.859
	S297.807,184.368,297.807,154.119z M242.948,193.304c-21.607,0-39.185-17.578-39.185-39.185s17.578-39.185,39.185-39.185
	s39.185,17.578,39.185,39.185S264.555,193.304,242.948,193.304z"/>
<path d="M242.948,120.159c-18.726,0-33.96,15.234-33.96,33.96s15.234,33.96,33.96,33.96s33.96-15.234,33.96-33.96
	S261.674,120.159,242.948,120.159z M242.948,172.405c-10.083,0-18.286-8.204-18.286-18.286s8.204-18.286,18.286-18.286
	s18.286,8.204,18.286,18.286S253.03,172.405,242.948,172.405z"/>
<path d="M172.414,154.119c0-30.249-24.61-54.859-54.859-54.859s-54.859,24.61-54.859,54.859s24.61,54.859,54.859,54.859
	S172.414,184.368,172.414,154.119z M117.555,193.304c-21.607,0-39.185-17.578-39.185-39.185s17.578-39.185,39.185-39.185
	s39.185,17.578,39.185,39.185S139.163,193.304,117.555,193.304z"/>
<path d="M117.555,120.159c-18.726,0-33.96,15.234-33.96,33.96s15.234,33.96,33.96,33.96s33.96-15.234,33.96-33.96
	S136.282,120.159,117.555,120.159z M117.555,172.405c-10.083,0-18.286-8.204-18.286-18.286s8.204-18.286,18.286-18.286
	s18.286,8.204,18.286,18.286S127.638,172.405,117.555,172.405z"/>
<path d="M500.542,277.927c-15.278-15.278-40.138-15.278-55.416,0c-10.726,10.726-13.911,26.174-9.576,39.714
	c-6.847-5.85-15.721-9.394-25.412-9.394c-21.607,0-39.185,17.578-39.185,39.185c0,21.607,17.578,39.185,39.185,39.185
	s39.185-17.578,39.185-39.185c0-4.17-0.661-8.187-1.874-11.96c3.658,3.116,7.754,5.456,12.075,7.008
	c0.162,1.637,0.247,3.292,0.247,4.952c0,2.932-0.258,5.865-0.767,8.729c-4.195,23.702-24.747,40.905-48.867,40.905
	c-27.368,0-49.634-22.267-49.634-49.634c0-27.368,22.267-49.634,49.634-49.634c3.601,0,7.216,0.392,10.745,1.166l3.357-15.31
	c-4.63-1.016-9.375-1.53-14.102-1.53c-36.012,0-65.309,29.297-65.309,65.309s29.297,65.309,65.309,65.309
	c31.737,0,58.779-22.647,64.299-53.839c0.67-3.759,1.009-7.618,1.009-11.469c0-0.909-0.028-1.816-0.066-2.723
	c9.169-0.591,18.169-4.374,25.162-11.366C515.82,318.065,515.82,293.205,500.542,277.927z M410.138,370.943
	c-12.964,0-23.511-10.548-23.511-23.511c0-12.963,10.548-23.511,23.511-23.511c5.279,0,10.157,1.749,14.085,4.698l-18.433,12.293
	l8.696,13.041l18.442-12.299c0.469,1.85,0.721,3.785,0.721,5.778C433.649,360.397,423.101,370.943,410.138,370.943z
	 M489.458,322.259c-9.166,9.167-24.083,9.167-33.248,0c-9.167-9.167-9.167-24.082,0-33.248c4.583-4.584,10.604-6.876,16.624-6.876
	s12.041,2.292,16.624,6.876C498.626,298.178,498.626,313.093,489.458,322.259z"/>
<g>
</g>
<g>
</g>
<g>
</g>
<g>
</g>
<g>
</g>
<g>
</g>
<g>
</g>
<g>
</g>
<g>
</g>
<g>
</g>
<g>
</g>
<g>
</g>
<g>
</g>
<g>
</g>
<g>
</g>
</svg>
