<?xml version="1.0" encoding="iso-8859-1"?>
<!-- Generator: Adobe Illustrator 19.0.0, SVG Export Plug-In . SVG Version: 6.00 Build 0)  -->
<svg version="1.1" id="Capa_1" xmlns="http://www.w3.org/2000/svg" xmlns:xlink="http://www.w3.org/1999/xlink" x="0px" y="0px"
	 viewBox="0 0 512 512" style="enable-background:new 0 0 512 512;" xml:space="preserve">
<g>
	<path style="fill:#3E3D42;" d="M256,462.367c-86.562,0-156.735-46.782-156.735-104.49v41.796
		c0,57.708,70.172,104.49,156.735,104.49s156.735-46.782,156.735-104.49v-41.796C412.735,415.585,342.562,462.367,256,462.367z"/>
	<ellipse style="fill:#3E3D42;" cx="256" cy="357.878" rx="156.735" ry="104.49"/>
</g>
<ellipse style="fill:#57565C;" cx="256" cy="357.878" rx="109.714" ry="67.918"/>
<path style="fill:#FFFFFF;" d="M256,357.878L256,357.878c-11.542,0-20.898-9.356-20.898-20.898V180.245h41.796V336.98
	C276.898,348.522,267.542,357.878,256,357.878z"/>
<circle style="fill:#FF6243;" cx="256" cy="94.041" r="86.204"/>
<rect x="193.306" y="101.898" style="fill:#FFFFFF;" width="15.673" height="15.673"/>
<path style="fill:#E2472D;" d="M305.592,23.551c9.888,14.028,15.714,31.124,15.714,49.592c0,47.609-38.595,86.204-86.204,86.204
	c-18.468,0-35.564-5.826-49.592-15.714c15.602,22.137,41.348,36.612,70.49,36.612c47.61,0,86.204-38.594,86.204-86.204
	C342.204,64.899,327.729,39.153,305.592,23.551z"/>
<path d="M385.236,288.123c-21.709-18.738-52.26-32.48-86.021-38.692l-2.837,15.414c63.894,11.757,108.52,50.013,108.52,93.031
	c0,25.206-15.064,49.131-42.419,67.366C334.15,444.13,296.335,454.531,256,454.531s-78.15-10.401-106.48-29.287
	c-27.353-18.235-42.418-42.16-42.418-67.366c0-46.194,51.081-86.004,120.163-94.835v21.349
	c-23.305,3.738-44.488,12.035-60.217,23.704c-18.442,13.683-28.599,31.362-28.599,49.782c0,20.958,12.731,40.38,35.846,54.69
	c21.944,13.584,50.961,21.065,81.705,21.065s59.76-7.481,81.705-21.065c23.115-14.31,35.846-33.732,35.846-54.69
	c0-18.419-10.157-36.099-28.599-49.782c-15.73-11.668-36.912-19.966-60.217-23.704V183.585
	c37.843-12.172,65.306-47.709,65.306-89.545C350.041,42.187,307.854,0,256,0s-94.041,42.187-94.041,94.041
	c0,41.836,27.463,77.373,65.306,89.546v63.66c-35.993,4.306-68.995,16.713-93.563,35.278c-27.26,20.599-42.273,47.36-42.273,75.353
	v41.796c0,30.615,17.543,59.17,49.397,80.406C171.701,500.663,212.604,512,256,512s84.299-11.337,115.176-31.921
	c31.853-21.235,49.395-49.79,49.395-80.406v-41.796C420.571,332.197,408.353,308.077,385.236,288.123z M335.613,320.683
	c14.357,10.652,22.265,23.86,22.265,37.194c0,15.328-10.094,30.018-28.422,41.363c-19.5,12.071-45.587,18.718-73.455,18.718
	s-53.955-6.648-73.455-18.718c-18.329-11.346-28.422-26.036-28.422-41.363c0-13.334,7.907-26.541,22.264-37.194
	c13.199-9.792,31.026-16.911,50.879-20.414v36.71c0,15.844,12.89,28.735,28.735,28.735c15.844,0,28.735-12.891,28.735-28.735v-36.71
	C304.588,303.773,322.414,310.892,335.613,320.683z M177.633,94.041c0-43.212,35.156-78.367,78.367-78.367
	s78.367,35.156,78.367,78.367S299.212,172.408,256,172.408S177.633,137.253,177.633,94.041z M256,188.082
	c4.431,0,8.791-0.316,13.061-0.911V336.98c0,7.202-5.859,13.061-13.061,13.061c-7.202,0-13.061-5.859-13.061-13.061V187.17
	C247.209,187.766,251.568,188.082,256,188.082z M362.481,467.039c-28.33,18.887-66.146,29.287-106.481,29.287
	s-78.151-10.401-106.481-29.287c-24.826-16.551-39.526-37.788-42.031-60.416c8.189,11.663,19.391,22.364,33.339,31.661
	c30.877,20.583,71.779,31.92,115.174,31.92s84.298-11.336,115.175-31.92c13.946-9.298,25.15-19.998,33.339-31.661
	C402.008,429.251,387.307,450.488,362.481,467.039z"/>
<path d="M256,31.347c-34.569,0-62.694,28.124-62.694,62.694h15.673c0-25.927,21.093-47.02,47.02-47.02V31.347z"/>
<g>
</g>
<g>
</g>
<g>
</g>
<g>
</g>
<g>
</g>
<g>
</g>
<g>
</g>
<g>
</g>
<g>
</g>
<g>
</g>
<g>
</g>
<g>
</g>
<g>
</g>
<g>
</g>
<g>
</g>
</svg>
