<?xml version="1.0" encoding="iso-8859-1"?>
<!-- Generator: Adobe Illustrator 19.0.0, SVG Export Plug-In . SVG Version: 6.00 Build 0)  -->
<svg version="1.1" id="Capa_1" xmlns="http://www.w3.org/2000/svg" xmlns:xlink="http://www.w3.org/1999/xlink" x="0px" y="0px"
	 viewBox="0 0 512 512" style="enable-background:new 0 0 512 512;" xml:space="preserve">
<rect x="7.837" y="200.098" style="fill:#57565C;" width="496.327" height="31.347"/>
<circle style="fill:#FF6243;" cx="151.51" cy="126.955" r="36.571"/>
<polygon style="fill:#FC7660;" points="214.204,268.016 88.816,268.016 78.367,163.527 224.653,163.527 "/>
<g>
	<rect x="176.065" y="187.037" style="fill:#FFFFFF;" width="15.673" height="15.673"/>
	<rect x="144.718" y="187.037" style="fill:#FFFFFF;" width="15.673" height="15.673"/>
	<rect x="113.371" y="187.037" style="fill:#FFFFFF;" width="15.673" height="15.673"/>
</g>
<polygon style="fill:#E2472D;" points="182.857,372.506 120.163,372.506 109.714,268.016 193.306,268.016 "/>
<circle style="fill:#FF6243;" cx="355.265" cy="126.955" r="36.571"/>
<polygon style="fill:#FC7660;" points="417.959,268.016 292.571,268.016 282.122,163.527 428.408,163.527 "/>
<g>
	<rect x="379.037" y="187.037" style="fill:#FFFFFF;" width="15.673" height="15.673"/>
	<rect x="347.69" y="187.037" style="fill:#FFFFFF;" width="15.673" height="15.673"/>
	<rect x="316.343" y="187.037" style="fill:#FFFFFF;" width="15.673" height="15.673"/>
</g>
<polygon style="fill:#E2472D;" points="386.612,372.506 323.918,372.506 313.469,268.016 397.061,268.016 "/>
<polygon style="fill:#B53224;" points="190.837,292.702 112.183,292.702 109.714,268.016 193.306,268.016 "/>
<polygon style="fill:#E2472D;" points="386.612,372.506 323.918,372.506 313.469,268.016 397.061,268.016 "/>
<polygon style="fill:#B53224;" points="394.593,292.702 315.937,292.702 313.731,268.016 397.322,268.016 "/>
<circle style="fill:#FFDA44;" cx="193.306" cy="385.045" r="36.571"/>
<path style="fill:#EEBF00;" d="M210.111,352.566c2.61,5.033,4.093,10.745,4.093,16.805c0,20.198-16.374,36.571-36.571,36.571
	c-6.06,0-11.772-1.483-16.805-4.093c6.087,11.739,18.342,19.766,32.479,19.766c20.198,0,36.571-16.374,36.571-36.571
	C229.878,370.907,221.851,358.653,210.111,352.566z"/>
<path d="M512,192.261h-78.59l3.657-36.571h-47.983c6.596-7.752,10.589-17.783,10.589-28.735c0-24.487-19.921-44.408-44.408-44.408
	s-44.408,19.921-44.408,44.408c0,10.952,3.994,20.983,10.589,28.735h-47.983l3.657,36.571h-47.466l3.657-36.571h-47.983
	c6.596-7.752,10.589-17.783,10.589-28.735c0-24.487-19.921-44.408-44.408-44.408s-44.408,19.921-44.408,44.408
	c0,10.952,3.994,20.983,10.589,28.735H69.708l3.657,36.571H0v47.02h78.067l3.657,36.571h20.898l10.449,104.49h24.144v-15.673h-9.961
	l-8.882-88.816h66.273l-5.125,51.246l15.596,1.559l5.282-52.805h20.897l3.657-36.571h56.87l3.657,36.571h20.898l10.449,104.49
	h76.877l10.449-104.49h20.898l3.657-36.571H512V192.261z M326.531,126.955c0-15.844,12.891-28.735,28.735-28.735
	S384,111.111,384,126.955s-12.891,28.735-28.735,28.735S326.531,142.799,326.531,126.955z M122.776,126.955
	c0-15.844,12.891-28.735,28.735-28.735s28.735,12.891,28.735,28.735s-12.891,28.735-28.735,28.735S122.776,142.799,122.776,126.955z
	 M15.673,223.608v-15.673h59.259l1.567,15.673H15.673z M207.112,260.18h-5.146H101.055h-5.147l-8.882-88.816h128.968L207.112,260.18
	z M226.52,223.608l1.567-15.673h50.6l1.567,15.673H226.52z M379.521,364.669h-48.51l-8.882-88.816h66.274L379.521,364.669z
	 M410.867,260.18h-5.147H304.81h-5.147l-8.882-88.816h128.968L410.867,260.18z M496.327,223.608h-66.051l1.567-15.673h64.484
	V223.608z"/>
<path d="M193.306,340.637c-24.487,0-44.408,19.921-44.408,44.408s19.921,44.408,44.408,44.408s44.408-19.921,44.408-44.408
	S217.793,340.637,193.306,340.637z M193.306,413.78c-15.844,0-28.735-12.891-28.735-28.735s12.891-28.735,28.735-28.735
	s28.735,12.891,28.735,28.735S209.15,413.78,193.306,413.78z"/>
<g>
</g>
<g>
</g>
<g>
</g>
<g>
</g>
<g>
</g>
<g>
</g>
<g>
</g>
<g>
</g>
<g>
</g>
<g>
</g>
<g>
</g>
<g>
</g>
<g>
</g>
<g>
</g>
<g>
</g>
</svg>
