<?xml version="1.0" encoding="iso-8859-1"?>
<!-- Generator: Adobe Illustrator 19.0.0, SVG Export Plug-In . SVG Version: 6.00 Build 0)  -->
<svg version="1.1" id="Capa_1" xmlns="http://www.w3.org/2000/svg" xmlns:xlink="http://www.w3.org/1999/xlink" x="0px" y="0px"
	 viewBox="0 0 512 512" style="enable-background:new 0 0 512 512;" xml:space="preserve">
<g>
	<path style="fill:#FF6243;" d="M329.685,355.794c-9.454-6.62-11.752-19.65-5.131-29.105c6.62-9.454,19.65-11.752,29.105-5.131
		l132.67,67.385c18.908,13.24,23.503,39.301,10.264,58.209c-13.24,18.908-39.301,23.503-58.209,10.264L329.685,355.794z"/>
	<path style="fill:#FF6243;" d="M196.96,444.077c11.542,0,20.898-9.356,20.898-20.898s-9.356-20.898-20.898-20.898L49.632,381.384
		c-23.082,0-41.795,18.713-41.795,41.795s18.713,41.795,41.795,41.795L196.96,444.077z"/>
</g>
<circle style="fill:#57565C;" cx="255.995" cy="193.313" r="31.346"/>
<g>
	<circle style="fill:#FFFFFF;" cx="49.632" cy="423.176" r="15.673"/>
	<circle style="fill:#FFFFFF;" cx="462.359" cy="423.176" r="15.673"/>
</g>
<g>
	<circle style="fill:#00DDC2;" cx="28.734" cy="184.693" r="20.898"/>
	<circle style="fill:#00DDC2;" cx="145.51" cy="67.927" r="20.898"/>
	<circle style="fill:#00DDC2;" cx="28.734" cy="67.927" r="20.898"/>
	<circle style="fill:#00DDC2;" cx="366.481" cy="67.927" r="20.898"/>
	<circle style="fill:#00DDC2;" cx="483.256" cy="184.693" r="20.898"/>
	<circle style="fill:#00DDC2;" cx="483.256" cy="67.927" r="20.898"/>
</g>
<path d="M255.995,154.126c-21.606,0-39.183,17.577-39.183,39.183v104.488h15.673v-73.162c4.559,3.43,9.886,5.89,15.673,7.07v76.543
	h15.673v-76.543c5.788-1.18,11.114-3.639,15.673-7.07v41.816h15.673v-73.142C295.178,171.704,277.601,154.126,255.995,154.126z
	 M255.995,216.819c-12.964,0-23.51-10.547-23.51-23.51s10.546-23.51,23.51-23.51c12.964,0,23.51,10.547,23.51,23.51
	C279.505,206.273,268.959,216.819,255.995,216.819z"/>
<rect x="279.505" y="282.128" width="15.673" height="15.673"/>
<rect x="248.159" y="323.923" width="15.673" height="15.673"/>
<path d="M49.632,399.669c-12.964,0-23.51,10.547-23.51,23.51s10.546,23.51,23.51,23.51s23.51-10.547,23.51-23.51
	C73.142,410.215,62.596,399.669,49.632,399.669z M49.632,431.016c-4.322,0-7.837-3.515-7.837-7.837s3.515-7.837,7.837-7.837
	s7.837,3.515,7.837,7.837C57.468,427.5,53.953,431.016,49.632,431.016z"/>
<path d="M197.555,394.45L50.184,373.547h-0.553C22.265,373.547,0,395.813,0,423.179s22.265,49.632,49.632,49.632h0.553
	l147.371-20.904c15.57-0.319,28.139-13.083,28.139-28.728S213.126,394.769,197.555,394.45z M196.96,436.24h-0.553l-147.3,20.893
	c-18.485-0.281-33.434-15.406-33.434-33.954s14.949-33.674,33.434-33.954l147.3,20.893h0.553c7.202,0,13.061,5.859,13.061,13.061
	S204.162,436.24,196.96,436.24z"/>
<path d="M475.839,403.921c-10.618-7.437-25.307-4.846-32.742,5.773c-3.602,5.144-4.985,11.383-3.894,17.568
	c1.09,6.185,4.524,11.574,9.668,15.176c4.095,2.868,8.795,4.244,13.451,4.244c7.418-0.001,14.723-3.494,19.291-10.017
	c3.602-5.144,4.985-11.383,3.895-17.568C484.417,412.912,480.984,407.522,475.839,403.921z M468.774,427.674
	c-2.478,3.539-7.373,4.401-10.914,1.925c-1.715-1.201-2.859-2.998-3.222-5.059c-0.364-2.062,0.098-4.141,1.299-5.855
	c1.522-2.174,3.958-3.338,6.43-3.338c1.552,0,3.118,0.46,4.484,1.415C470.39,419.238,471.253,424.135,468.774,427.674z"/>
<path d="M490.822,382.523l-0.453-0.318l-132.707-67.404c-6.19-4.151-13.617-5.723-20.98-4.423
	c-7.559,1.332-14.146,5.528-18.548,11.817c-4.402,6.288-6.093,13.913-4.76,21.471c1.298,7.363,5.313,13.804,11.332,18.202
	l108.729,101.651l0.453,0.318c8.646,6.054,18.566,8.96,28.397,8.959c15.659-0.001,31.084-7.377,40.726-21.147
	c7.604-10.859,10.524-24.03,8.222-37.086C508.931,401.504,501.682,390.127,490.822,382.523z M490.172,442.657
	c-10.64,15.195-31.56,19.006-46.863,8.638L334.633,349.691l-0.453-0.318c-2.858-2.001-4.766-4.995-5.371-8.43
	c-0.605-3.436,0.163-6.901,2.164-9.76c2.001-2.858,4.996-4.765,8.431-5.372c3.436-0.605,6.901,0.162,9.759,2.164l0.453,0.318
	l132.645,67.373c7.192,5.2,11.992,12.856,13.536,21.616C497.373,426.215,495.375,435.226,490.172,442.657z"/>
<path d="M0.07,186.594c0.013,0.194,0.028,0.388,0.044,0.581c0.036,0.417,0.082,0.832,0.136,1.243
	c1.029,8.202,5.402,15.32,12.151,19.898c3.573,2.479,7.732,4.169,12.225,4.815c1.433,0.219,2.866,0.329,4.291,0.329
	c5.6,0,11.068-1.677,15.811-4.906c1.741-1.17,3.342-2.531,4.784-4.043L165.321,88.703c1.625-1.55,3.067-3.286,4.294-5.176
	c0.142-0.215,0.282-0.432,0.417-0.65c0.078-0.129,0.152-0.26,0.228-0.389c3.168-5.294,4.502-11.366,3.832-17.47
	c-0.5-4.954-2.267-9.537-4.966-13.427c-4.579-6.749-11.696-11.122-19.899-12.151c-0.412-0.053-0.825-0.099-1.241-0.135
	c-0.193-0.016-0.387-0.032-0.581-0.044c-0.629-0.042-1.261-0.07-1.9-0.07c-0.008,0-0.017,0.001-0.024,0.001
	c-0.006,0-0.011-0.001-0.018-0.001H28.734C12.89,39.191,0,52.082,0,67.925v116.73c0,0.006,0.001,0.012,0.001,0.018
	c0,0.008-0.001,0.017-0.001,0.024C0,185.334,0.028,185.966,0.07,186.594z M54.315,54.862h65.609
	c-2.01,3.921-3.153,8.359-3.153,13.061c0,12.741,8.339,23.566,19.843,27.319l-80.561,80.561
	c-3.753-11.504-14.578-19.843-27.319-19.843c-4.702,0-9.14,1.142-13.061,3.153V93.505c3.921,2.01,8.359,3.153,13.061,3.153
	c15.845,0,28.734-12.891,28.734-28.734C57.468,63.222,56.326,58.785,54.315,54.862z M145.595,54.868
	c0.383,0.003,0.763,0.022,1.138,0.057c0.076,0.006,0.15,0.016,0.226,0.024c3.815,0.425,7.133,2.499,9.235,5.492
	c0.515,0.762,0.965,1.589,1.336,2.485c0.39,0.94,0.669,1.89,0.842,2.838c0.008,0.051,0.016,0.102,0.024,0.154
	c0.042,0.248,0.079,0.494,0.107,0.741c0.04,0.417,0.064,0.838,0.064,1.264c0,2.599-0.772,5.016-2.086,7.054
	c-0.147,0.223-0.297,0.443-0.459,0.659c-0.004,0.005-0.008,0.01-0.012,0.016c-0.393,0.522-0.83,1.026-1.311,1.507l-0.327,0.327
	c-2.332,2.163-5.443,3.498-8.867,3.498c-7.202,0-13.061-5.859-13.061-13.061c0-7.196,5.85-13.051,13.044-13.06
	C145.524,54.863,145.56,54.868,145.595,54.868z M37.97,193.889c-0.479,0.479-0.981,0.914-1.501,1.307
	c-0.009,0.007-0.019,0.014-0.028,0.021c-0.212,0.159-0.428,0.306-0.647,0.45c-2.039,1.317-4.458,2.089-7.06,2.089
	c-0.43,0-0.856-0.024-1.276-0.065c-0.207-0.024-0.415-0.055-0.623-0.09c-0.093-0.014-0.185-0.027-0.277-0.043
	c-0.942-0.173-1.888-0.451-2.823-0.839c-0.893-0.37-1.72-0.82-2.481-1.333c-2.995-2.101-5.071-5.421-5.496-9.238
	c-0.008-0.075-0.017-0.15-0.024-0.226c-0.036-0.375-0.055-0.754-0.057-1.138c0-0.036-0.003-0.071-0.004-0.108
	c0.009-7.194,5.864-13.044,13.06-13.044c7.202,0,13.061,5.859,13.061,13.061c0,3.424-1.335,6.535-3.498,8.867L37.97,193.889z
	 M28.734,54.862c7.202,0,13.061,5.859,13.061,13.061s-5.859,13.061-13.061,13.061s-13.061-5.859-13.061-13.061
	S21.532,54.862,28.734,54.862z"/>
<path d="M511.991,67.923c0-15.843-12.89-28.734-28.734-28.734h-116.73c-0.006,0-0.011,0.001-0.018,0.001
	c-0.008,0-0.017-0.001-0.024-0.001c-0.638,0-1.271,0.028-1.9,0.07c-0.194,0.013-0.388,0.028-0.581,0.044
	c-0.417,0.036-0.831,0.082-1.241,0.135c-8.202,1.029-15.321,5.402-19.899,12.151c-2.699,3.891-4.467,8.474-4.966,13.427
	c-0.671,6.114,0.668,12.196,3.847,17.496c0.07,0.119,0.138,0.239,0.21,0.357c0.138,0.223,0.281,0.443,0.425,0.663
	c1.221,1.879,2.655,3.606,4.268,5.148l115.81,115.808c1.45,1.523,3.061,2.893,4.814,4.07c4.742,3.226,10.206,4.9,15.803,4.9
	c1.423,0,2.855-0.11,4.285-0.328c4.495-0.646,8.656-2.335,12.231-4.816c6.749-4.578,11.121-11.695,12.151-19.898
	c0.053-0.412,0.099-0.825,0.136-1.243c0.016-0.193,0.031-0.387,0.044-0.581c0.042-0.629,0.07-1.26,0.07-1.9
	c0-0.008-0.001-0.017-0.001-0.024c0-0.006,0.001-0.012,0.001-0.018V67.923H511.991z M496.313,184.786
	c-0.003,0.383-0.023,0.763-0.057,1.138c-0.006,0.076-0.016,0.15-0.024,0.226c-0.425,3.817-2.501,7.137-5.496,9.238
	c-0.761,0.514-1.586,0.963-2.481,1.333c-0.94,0.39-1.891,0.669-2.839,0.842c-0.048,0.008-0.097,0.015-0.145,0.022
	c-0.251,0.043-0.5,0.079-0.751,0.108c-0.416,0.04-0.837,0.064-1.263,0.064c-2.596,0-5.013-0.771-7.049-2.082
	c-0.768-0.507-1.501-1.1-2.187-1.786l-0.337-0.337c-2.158-2.33-3.488-5.436-3.488-8.855c0-7.202,5.859-13.061,13.061-13.061
	c7.196,0,13.051,5.85,13.06,13.044C496.316,184.715,496.313,184.749,496.313,184.786z M483.256,155.961
	c-12.741,0-23.566,8.339-27.319,19.843l-80.562-80.56c11.505-3.753,19.844-14.578,19.844-27.319c0-4.702-1.142-9.14-3.153-13.061
	h65.609c-2.01,3.921-3.153,8.359-3.153,13.061c0,15.843,12.89,28.734,28.734,28.734c4.702,0,9.14-1.142,13.061-3.153v65.609
	C492.396,157.104,487.958,155.961,483.256,155.961z M357.291,77.16c-0.479-0.479-0.913-0.979-1.304-1.499
	c-0.008-0.01-0.017-0.022-0.024-0.032c-0.159-0.212-0.306-0.428-0.45-0.647c-1.316-2.038-2.088-4.457-2.088-7.058
	c0-0.426,0.024-0.847,0.064-1.264c0.028-0.248,0.065-0.495,0.107-0.743c0.008-0.051,0.015-0.102,0.023-0.154
	c0.173-0.948,0.452-1.897,0.842-2.838c0.371-0.895,0.821-1.723,1.336-2.485c2.101-2.993,5.42-5.067,9.235-5.492
	c0.075-0.007,0.15-0.018,0.226-0.024c0.375-0.036,0.754-0.055,1.138-0.057c0.037,0,0.071-0.003,0.108-0.004
	c7.194,0.009,13.044,5.864,13.044,13.06c0,7.202-5.859,13.061-13.061,13.061c-3.429,0-6.545-1.338-8.877-3.509L357.291,77.16z
	 M496.317,67.923c0,7.202-5.859,13.061-13.061,13.061s-13.061-5.859-13.061-13.061s5.859-13.061,13.061-13.061
	S496.317,60.722,496.317,67.923z"/>
<g>
</g>
<g>
</g>
<g>
</g>
<g>
</g>
<g>
</g>
<g>
</g>
<g>
</g>
<g>
</g>
<g>
</g>
<g>
</g>
<g>
</g>
<g>
</g>
<g>
</g>
<g>
</g>
<g>
</g>
</svg>
