<?xml version="1.0" encoding="iso-8859-1"?>
<!-- Generator: Adobe Illustrator 19.0.0, SVG Export Plug-In . SVG Version: 6.00 Build 0)  -->
<svg version="1.1" id="Capa_1" xmlns="http://www.w3.org/2000/svg" xmlns:xlink="http://www.w3.org/1999/xlink" x="0px" y="0px"
	 viewBox="0 0 512 512" style="enable-background:new 0 0 512 512;" xml:space="preserve">
<polygon style="fill:#EEBF00;" points="7.837,270.835 78.89,341.888 148.898,271.88 148.898,265.61 120.686,237.398 37.094,237.398 
	7.837,266.655 "/>
<polygon style="fill:#FFDA44;" points="148.898,265.61 148.898,268.745 7.837,268.745 7.837,266.655 37.094,237.398 
	120.686,237.398 "/>
<polygon style="fill:#00AA95;" points="185.469,270.835 256.522,341.888 326.531,271.88 326.531,265.61 298.318,237.398 
	214.727,237.398 185.469,266.655 "/>
<polygon style="fill:#00DDC2;" points="326.531,265.61 326.531,268.745 185.469,268.745 185.469,266.655 214.727,237.398 
	298.318,237.398 "/>
<polygon style="fill:#E2472D;" points="363.102,270.835 434.155,341.888 504.163,271.88 504.163,265.61 475.951,237.398 
	392.359,237.398 363.102,266.655 "/>
<polygon style="fill:#FF6243;" points="504.163,265.61 504.163,268.745 363.102,268.745 363.102,266.655 392.359,237.398 
	475.951,237.398 "/>
<path d="M97.286,229.561l19.871-19.871l-11.082-11.082l-19.871,19.87V159.03H70.531v70.531H33.848L0,263.409v10.672l78.89,78.89
	l77.845-77.845v-12.761l-32.804-32.804H97.286V229.561z M86.727,276.582h20.455l-20.455,35.796V276.582z M71.053,312.378
	l-20.455-35.796h20.455V312.378z M55.38,260.908H24.666l13.164-13.163L55.38,260.908z M60.604,245.235h36.571L78.89,258.949
	L60.604,245.235z M32.546,276.582l10.506,18.386l-18.386-18.386H32.546z M125.233,276.582h7.88l-18.386,18.386L125.233,276.582z
	 M102.4,260.908l17.55-13.163l13.163,13.163H102.4z"/>
<path d="M274.92,229.561l19.87-19.871l-11.083-11.082l-19.87,19.87v-59.447h-15.673v70.531h-36.682l-33.848,33.847v10.672
	l78.89,78.89l77.845-77.845v-12.761l-32.804-32.804H274.92V229.561z M264.359,276.582h20.455l-20.455,35.796V276.582z
	 M248.686,312.378l-20.455-35.796h20.455V312.378z M233.012,260.908h-30.714l13.163-13.163L233.012,260.908z M238.237,245.235
	h36.571l-18.286,13.714L238.237,245.235z M210.179,276.582l10.506,18.386L202.3,276.582H210.179z M302.866,276.582h7.88
	l-18.386,18.386L302.866,276.582z M280.033,260.908l17.55-13.163l13.163,13.163H280.033z"/>
<path d="M479.196,229.561h-26.645l19.87-19.871l-11.083-11.082l-19.869,19.87v-59.447h-15.673v70.531h-36.682l-33.848,33.847v10.672
	l78.89,78.89L512,275.125v-12.761L479.196,229.561z M441.992,276.582h20.455l-20.455,35.796V276.582z M426.318,312.378
	l-20.455-35.796h20.455V312.378z M410.645,260.908h-30.714l13.163-13.163L410.645,260.908z M415.869,245.235h36.571l-18.286,13.714
	L415.869,245.235z M387.812,276.582l10.506,18.386l-18.386-18.386H387.812z M480.498,276.582h7.88l-18.386,18.386L480.498,276.582z
	 M457.665,260.908l17.55-13.163l13.163,13.163H457.665z"/>
<rect x="120.403" y="179.687" transform="matrix(-0.7071 -0.7071 0.7071 -0.7071 86.3191 410.8021)" width="15.673" height="15.673"/>
<rect x="16.075" y="190.767" transform="matrix(-0.7071 -0.7071 0.7071 -0.7071 -72.8577 367.0285)" width="47.02" height="15.673"/>
<rect x="298.022" y="179.694" transform="matrix(-0.7071 -0.7071 0.7071 -0.7071 389.5286 536.4102)" width="15.673" height="15.673"/>
<rect x="193.707" y="190.768" transform="matrix(-0.7071 -0.7071 0.7071 -0.7071 230.3778 492.6351)" width="47.02" height="15.673"/>
<rect x="475.641" y="179.691" transform="matrix(-0.7071 -0.7071 0.7071 -0.7071 692.7455 662.0005)" width="15.673" height="15.673"/>
<rect x="371.337" y="190.765" transform="matrix(-0.7071 -0.7071 0.7071 -0.7071 533.6126 618.2327)" width="47.02" height="15.673"/>
<g>
</g>
<g>
</g>
<g>
</g>
<g>
</g>
<g>
</g>
<g>
</g>
<g>
</g>
<g>
</g>
<g>
</g>
<g>
</g>
<g>
</g>
<g>
</g>
<g>
</g>
<g>
</g>
<g>
</g>
</svg>
