<?xml version="1.0" encoding="iso-8859-1"?>
<!-- Generator: Adobe Illustrator 19.0.0, SVG Export Plug-In . SVG Version: 6.00 Build 0)  -->
<svg version="1.1" id="Capa_1" xmlns="http://www.w3.org/2000/svg" xmlns:xlink="http://www.w3.org/1999/xlink" x="0px" y="0px"
	 viewBox="0 0 512 512" style="enable-background:new 0 0 512 512;" xml:space="preserve">
<circle style="fill:#57565C;" cx="80.98" cy="301.714" r="73.143"/>
<rect x="31.347" y="278.904" style="fill:#FFFFFF;" width="15.673" height="15.673"/>
<g>
	<path style="fill:#3E3D42;" d="M121.179,240.617c7.607,11.537,12.046,25.347,12.046,40.199c0,40.396-32.747,73.143-73.143,73.143
		c-14.852,0-28.663-4.44-40.199-12.046c13.081,19.842,35.554,32.944,61.097,32.944c40.396,0,73.143-32.747,73.143-73.143
		C154.122,276.171,141.02,253.698,121.179,240.617z"/>
	<path style="fill:#3E3D42;" d="M107.102,212.898v31.347c0,5.768-11.692,10.449-26.122,10.449s-26.122-4.681-26.122-10.449v-31.347
		c0-5.768,11.692-10.449,26.122-10.449C95.41,202.449,107.102,207.13,107.102,212.898z"/>
</g>
<path style="fill:#FFFFFF;" d="M107.102,212.898c0,5.768-11.692,10.449-26.122,10.449s-26.122-4.681-26.122-10.449
	s11.692-10.449,26.122-10.449C95.41,202.449,107.102,207.13,107.102,212.898z"/>
<circle style="fill:#57565C;" cx="256" cy="301.714" r="73.143"/>
<rect x="206.367" y="278.904" style="fill:#FFFFFF;" width="15.673" height="15.673"/>
<g>
	<path style="fill:#3E3D42;" d="M296.199,240.617c7.606,11.537,12.046,25.347,12.046,40.199c0,40.396-32.747,73.143-73.143,73.143
		c-14.852,0-28.663-4.44-40.199-12.046c13.081,19.842,35.554,32.944,61.097,32.944c40.396,0,73.143-32.747,73.143-73.143
		C329.143,276.171,316.041,253.698,296.199,240.617z"/>
	<path style="fill:#3E3D42;" d="M282.122,212.898v31.347c0,5.768-11.692,10.449-26.122,10.449s-26.122-4.681-26.122-10.449v-31.347
		c0-5.768,11.692-10.449,26.122-10.449S282.122,207.13,282.122,212.898z"/>
</g>
<path style="fill:#FFFFFF;" d="M282.122,212.898c0,5.768-11.692,10.449-26.122,10.449s-26.122-4.681-26.122-10.449
	S241.57,202.449,256,202.449S282.122,207.13,282.122,212.898z"/>
<circle style="fill:#57565C;" cx="431.02" cy="301.714" r="73.143"/>
<rect x="381.388" y="278.904" style="fill:#FFFFFF;" width="15.673" height="15.673"/>
<g>
	<path style="fill:#3E3D42;" d="M471.22,240.617c7.607,11.537,12.046,25.347,12.046,40.199c0,40.396-32.747,73.143-73.143,73.143
		c-14.852,0-28.663-4.44-40.199-12.046c13.081,19.842,35.554,32.944,61.097,32.944c40.396,0,73.143-32.747,73.143-73.143
		C504.163,276.171,491.061,253.698,471.22,240.617z"/>
	<path style="fill:#3E3D42;" d="M457.143,212.898v31.347c0,5.768-11.692,10.449-26.122,10.449c-14.43,0-26.122-4.681-26.122-10.449
		v-31.347c0-5.768,11.692-10.449,26.122-10.449C445.45,202.449,457.143,207.13,457.143,212.898z"/>
</g>
<path style="fill:#FFFFFF;" d="M457.143,212.898c0,5.768-11.692,10.449-26.122,10.449c-14.43,0-26.122-4.681-26.122-10.449
	s11.692-10.449,26.122-10.449C445.45,202.449,457.143,207.13,457.143,212.898z"/>
<path d="M47.02,301.714H31.347c0,27.367,22.266,49.633,49.633,49.633v-15.673C62.255,335.673,47.02,320.439,47.02,301.714z"/>
<path d="M114.939,228.197v-15.299c0-10.562-12.441-16.287-26.122-17.844v-34.401H73.143v34.401
	c-13.682,1.557-26.122,7.282-26.122,17.844v15.299C18.688,241.328,0,270.202,0,301.714c0,44.653,36.327,80.98,80.98,80.98
	s80.98-36.327,80.98-80.98C161.959,270.202,143.271,241.328,114.939,228.197z M62.694,228.598
	c5.572,1.743,12.019,2.586,18.286,2.586c6.266,0,12.713-0.843,18.286-2.586v14.362c-2.034,1.528-8.658,3.897-18.286,3.897
	s-16.251-2.37-18.286-3.897V228.598z M73.143,210.852v2.046h15.673v-2.046c3.392,0.504,6.122,1.274,8.018,2.046
	c-3.19,1.301-8.696,2.612-15.854,2.612c-7.159,0-12.664-1.311-15.854-2.612C67.021,212.125,69.751,211.355,73.143,210.852z
	 M80.98,367.02c-36.009,0-65.306-29.297-65.306-65.306c0-22.936,12.275-44.136,31.462-55.838
	c1.461,11.425,18.217,16.655,33.844,16.655s32.383-5.23,33.844-16.655c19.186,11.702,31.462,32.903,31.462,55.838
	C146.286,337.724,116.989,367.02,80.98,367.02z"/>
<path d="M222.041,301.714h-15.673c0,27.367,22.266,49.633,49.633,49.633v-15.673C237.275,335.673,222.041,320.439,222.041,301.714z"
	/>
<path d="M289.959,228.197v-15.299c0-10.562-12.441-16.287-26.122-17.844v-34.401h-15.673v34.401
	c-13.682,1.557-26.122,7.282-26.122,17.844v15.299c-28.332,13.129-47.02,42.004-47.02,73.517c0,44.653,36.327,80.98,80.98,80.98
	c44.652,0,80.98-36.327,80.98-80.98C336.98,270.202,318.292,241.328,289.959,228.197z M237.714,228.598
	c5.572,1.743,12.019,2.586,18.286,2.586c6.266,0,12.713-0.843,18.286-2.586v14.362c-2.034,1.528-8.658,3.897-18.286,3.897
	c-9.628,0-16.251-2.37-18.286-3.897V228.598z M248.163,210.852v2.046h15.673v-2.046c3.392,0.504,6.122,1.274,8.017,2.046
	c-3.19,1.301-8.696,2.612-15.854,2.612s-12.664-1.311-15.854-2.612C242.041,212.125,244.772,211.355,248.163,210.852z M256,367.02
	c-36.009,0-65.306-29.297-65.306-65.306c0-22.936,12.275-44.136,31.462-55.838c1.461,11.425,18.217,16.655,33.844,16.655
	c15.629,0,32.383-5.23,33.844-16.655c19.186,11.702,31.462,32.904,31.462,55.838C321.306,337.724,292.01,367.02,256,367.02z"/>
<path d="M397.061,301.714h-15.673c0,27.367,22.266,49.633,49.633,49.633v-15.673C412.295,335.673,397.061,320.439,397.061,301.714z"
	/>
<path d="M464.98,228.197v-15.299c0-10.562-12.441-16.287-26.122-17.844v-34.401h-15.673v34.401
	c-13.682,1.557-26.122,7.282-26.122,17.844v15.299c-28.332,13.129-47.02,42.005-47.02,73.517c0,44.653,36.328,80.98,80.98,80.98
	S512,346.367,512,301.714C512,270.202,493.312,241.328,464.98,228.197z M412.735,228.598c5.572,1.743,12.019,2.586,18.286,2.586
	s12.713-0.843,18.286-2.586v14.362c-2.034,1.528-8.658,3.897-18.286,3.897s-16.251-2.37-18.286-3.897V228.598z M423.184,210.852
	v2.046h15.673v-2.046c3.392,0.504,6.122,1.274,8.018,2.046c-3.19,1.301-8.696,2.612-15.854,2.612s-12.664-1.311-15.854-2.612
	C417.062,212.125,419.792,211.355,423.184,210.852z M431.02,367.02c-36.01,0-65.306-29.297-65.306-65.306
	c0-22.934,12.275-44.135,31.462-55.838c1.461,11.425,18.216,16.655,33.844,16.655s32.383-5.23,33.844-16.655
	c19.186,11.702,31.462,32.904,31.462,55.838C496.327,337.724,467.031,367.02,431.02,367.02z"/>
<rect x="423.184" y="129.306" width="15.673" height="15.673"/>
<rect x="446.694" y="152.816" width="15.673" height="15.673"/>
<rect x="399.673" y="152.816" width="15.673" height="15.673"/>
<rect x="73.143" y="129.306" width="15.673" height="15.673"/>
<rect x="96.653" y="152.816" width="15.673" height="15.673"/>
<rect x="49.633" y="152.816" width="15.673" height="15.673"/>
<rect x="248.163" y="129.306" width="15.673" height="15.673"/>
<rect x="271.673" y="152.816" width="15.673" height="15.673"/>
<rect x="224.653" y="152.816" width="15.673" height="15.673"/>
<g>
</g>
<g>
</g>
<g>
</g>
<g>
</g>
<g>
</g>
<g>
</g>
<g>
</g>
<g>
</g>
<g>
</g>
<g>
</g>
<g>
</g>
<g>
</g>
<g>
</g>
<g>
</g>
<g>
</g>
</svg>
