<?xml version="1.0" encoding="iso-8859-1"?>
<!-- Generator: Adobe Illustrator 19.0.0, SVG Export Plug-In . SVG Version: 6.00 Build 0)  -->
<svg version="1.1" id="Capa_1" xmlns="http://www.w3.org/2000/svg" xmlns:xlink="http://www.w3.org/1999/xlink" x="0px" y="0px"
	 viewBox="0 0 512 512" style="enable-background:new 0 0 512 512;" xml:space="preserve">
<g>
	<path style="fill:#E2472D;" d="M363.102,227.265L363.102,227.265v-62.694l0,0c17.313,0,31.347,14.034,31.347,31.347l0,0
		C394.449,213.231,380.415,227.265,363.102,227.265z"/>
	<rect x="91.429" y="378.775" style="fill:#E2472D;" width="271.673" height="125.388"/>
</g>
<rect x="91.429" y="378.775" style="fill:#B53224;" width="271.673" height="39.184"/>
<rect x="91.429" y="86.204" style="fill:#00DDC2;" width="271.673" height="219.429"/>
<rect x="117.551" y="112.327" style="fill:#00AA95;" width="219.429" height="167.184"/>
<g>
	<rect x="70.531" y="305.633" style="fill:#FC7660;" width="313.469" height="73.143"/>
	<rect x="70.531" y="7.837" style="fill:#FC7660;" width="313.469" height="78.367"/>
</g>
<g>
	<rect x="175.02" y="39.184" style="fill:#FFFFFF;" width="104.49" height="15.673"/>
	<rect x="148.898" y="143.673" style="fill:#FFFFFF;" width="156.735" height="104.49"/>
</g>
<circle cx="227.265" cy="195.918" r="7.837"/>
<circle cx="279.51" cy="195.918" r="7.837"/>
<circle cx="175.02" cy="195.918" r="7.837"/>
<circle style="fill:#3FC378;" cx="425.796" cy="128" r="15.673"/>
<g>
	<circle style="fill:#FFDA44;" cx="163.527" cy="342.204" r="14.106"/>
	<circle style="fill:#FFDA44;" cx="227.265" cy="342.204" r="14.106"/>
	<circle style="fill:#FFDA44;" cx="291.004" cy="342.204" r="14.106"/>
</g>
<path d="M109.714,287.347h235.102V104.49H109.714V287.347z M136.47,271.673L152.143,256h150.243l15.673,15.673H136.47z
	 M156.735,240.327V151.51h36.571v88.816H156.735z M208.98,240.327V151.51h36.571v88.816H208.98z M261.224,240.327V151.51h36.571
	v88.816H261.224z M329.143,260.59l-15.673-15.673V146.92l15.673-15.673V260.59z M318.06,120.163l-15.673,15.673H152.143
	l-15.673-15.673H318.06z M125.388,131.245l15.673,15.673v97.998l-15.673,15.673V131.245z"/>
<path d="M425.796,104.49c-12.963,0-23.51,10.546-23.51,23.51c0,10.216,6.553,18.927,15.673,22.162v37.919h-16.462
	c-3.124-15.331-15.227-27.434-30.558-30.558V94.041h20.898V0H62.694v94.041h20.898v203.755H62.694v88.816h20.898V512h287.347
	V386.612h20.898v-88.816h-20.898v-63.483c15.331-3.124,27.434-15.228,30.558-30.558h32.136v-53.593
	c9.121-3.235,15.673-11.946,15.673-22.162C449.306,115.036,438.759,104.49,425.796,104.49z M355.265,496.327h-256V386.612h256
	V496.327z M376.163,313.469v57.469h-5.224H83.592h-5.224v-57.469H376.163z M99.265,297.796V94.041h256v203.755H99.265z
	 M78.367,78.367V15.673h297.796v62.694H78.367z M370.939,218.086v-44.335c9.122,3.234,15.673,11.949,15.673,22.168
	S380.061,214.852,370.939,218.086z M425.796,135.837c-4.322,0-7.837-3.515-7.837-7.837c0-4.322,3.515-7.837,7.837-7.837
	s7.837,3.515,7.837,7.837C433.633,132.322,430.118,135.837,425.796,135.837z"/>
<path d="M163.527,364.147c12.1,0,21.943-9.843,21.943-21.943s-9.843-21.943-21.943-21.943c-12.1,0-21.943,9.843-21.943,21.943
	S151.427,364.147,163.527,364.147z M163.527,335.935c3.458,0,6.269,2.812,6.269,6.269s-2.812,6.269-6.269,6.269
	c-3.458,0-6.269-2.812-6.269-6.269S160.069,335.935,163.527,335.935z"/>
<path d="M227.265,364.147c12.099,0,21.943-9.843,21.943-21.943s-9.844-21.943-21.943-21.943c-12.1,0-21.943,9.843-21.943,21.943
	S215.165,364.147,227.265,364.147z M227.265,335.935c3.458,0,6.269,2.812,6.269,6.269s-2.812,6.269-6.269,6.269
	c-3.458,0-6.269-2.812-6.269-6.269S223.808,335.935,227.265,335.935z"/>
<path d="M291.004,364.147c12.099,0,21.943-9.843,21.943-21.943s-9.844-21.943-21.943-21.943c-12.099,0-21.943,9.843-21.943,21.943
	S278.905,364.147,291.004,364.147z M291.004,335.935c3.458,0,6.269,2.812,6.269,6.269s-2.812,6.269-6.269,6.269
	c-3.458,0-6.269-2.812-6.269-6.269S287.547,335.935,291.004,335.935z"/>
<rect x="175.02" y="391.837" width="104.49" height="15.673"/>
<g>
</g>
<g>
</g>
<g>
</g>
<g>
</g>
<g>
</g>
<g>
</g>
<g>
</g>
<g>
</g>
<g>
</g>
<g>
</g>
<g>
</g>
<g>
</g>
<g>
</g>
<g>
</g>
<g>
</g>
</svg>
