<?xml version="1.0" encoding="iso-8859-1"?>
<!-- Generator: Adobe Illustrator 19.0.0, SVG Export Plug-In . SVG Version: 6.00 Build 0)  -->
<svg version="1.1" id="Capa_1" xmlns="http://www.w3.org/2000/svg" xmlns:xlink="http://www.w3.org/1999/xlink" x="0px" y="0px"
	 viewBox="0 0 512 512" style="enable-background:new 0 0 512 512;" xml:space="preserve">
<rect x="107.102" y="387.532" style="fill:#E2472D;" width="49.633" height="41.796"/>
<g>
	<rect x="57.469" y="345.736" style="fill:#FF6243;" width="99.265" height="41.796"/>
	<rect x="7.837" y="345.736" style="fill:#FF6243;" width="49.633" height="41.796"/>
	<rect x="355.265" y="345.736" style="fill:#FF6243;" width="99.265" height="41.796"/>
	<rect x="256" y="345.736" style="fill:#FF6243;" width="99.265" height="41.796"/>
	<rect x="454.531" y="345.736" style="fill:#FF6243;" width="49.633" height="41.796"/>
</g>
<g>
	<rect x="7.837" y="387.532" style="fill:#E2472D;" width="99.265" height="41.796"/>
	<rect x="404.898" y="387.532" style="fill:#E2472D;" width="99.265" height="41.796"/>
	<rect x="305.633" y="387.532" style="fill:#E2472D;" width="99.265" height="41.796"/>
	<rect x="256" y="387.532" style="fill:#E2472D;" width="49.633" height="41.796"/>
	<rect x="107.102" y="124.468" style="fill:#E2472D;" width="49.633" height="41.796"/>
</g>
<g>
	<rect x="57.469" y="82.672" style="fill:#FF6243;" width="99.265" height="41.796"/>
	<rect x="355.265" y="82.672" style="fill:#FF6243;" width="99.265" height="41.796"/>
	<rect x="454.531" y="82.672" style="fill:#FF6243;" width="49.633" height="41.796"/>
</g>
<rect x="7.837" y="124.468" style="fill:#E2472D;" width="99.265" height="41.796"/>
<rect x="7.837" y="82.672" style="fill:#FF6243;" width="49.633" height="41.796"/>
<g>
	<rect x="404.898" y="124.468" style="fill:#E2472D;" width="99.265" height="41.796"/>
	<rect x="305.633" y="124.468" style="fill:#E2472D;" width="99.265" height="41.796"/>
</g>
<rect x="256" y="82.672" style="fill:#FF6243;" width="99.265" height="41.796"/>
<rect x="256" y="124.468" style="fill:#E2472D;" width="49.633" height="41.796"/>
<g>
	<rect x="156.735" y="391.837" style="fill:#FFDA44;" width="99.265" height="26.122"/>
	<rect x="156.735" y="317.388" style="fill:#FFDA44;" width="99.265" height="26.122"/>
	<rect x="156.735" y="242.939" style="fill:#FFDA44;" width="99.265" height="26.122"/>
	<rect x="156.735" y="168.49" style="fill:#FFDA44;" width="99.265" height="26.122"/>
	<rect x="156.735" y="94.041" style="fill:#FFDA44;" width="99.265" height="26.122"/>
</g>
<path d="M263.837,74.833v-12.14h-15.673v23.51h-83.592v-23.51h-15.673v12.14H0v99.265h148.898V337.9H0v99.265h148.898v12.141h15.673
	v-23.51h83.592v23.51h15.673v-12.141H512V337.9H263.837V174.099H512V74.833H263.837z M363.102,90.507h83.592v26.122h-83.592V90.507z
	 M347.429,116.629h-83.592V90.507h83.592V116.629z M248.163,160.653h-83.592V128h83.592V160.653z M248.163,101.878v10.449h-83.592
	v-10.449H248.163z M65.306,90.507h83.592v26.122h-33.959H99.265H65.306V90.507z M15.673,90.507h33.959v26.122H15.673V90.507z
	 M99.265,158.425H15.673v-26.122h83.592V158.425z M114.939,132.303h33.959v26.122h-33.959V132.303z M248.163,176.327v10.449h-83.592
	v-10.449H248.163z M164.571,250.775h83.592v10.449h-83.592V250.775z M248.163,384h-83.592v-32.653h83.592V384z M164.571,325.224
	h83.592v10.449h-83.592V325.224z M65.306,353.574h83.592v26.122H65.306V353.574z M15.673,353.574h33.959v26.122H15.673V353.574z
	 M99.265,421.492H15.673V395.37h83.592V421.492z M114.939,395.37h33.959v26.122h-33.959V395.37z M164.571,410.122v-10.449h83.592
	v10.449H164.571z M297.796,421.492h-33.959V395.37h33.959V421.492z M397.061,421.492h-83.592V395.37h83.592V421.492z
	 M496.327,421.492h-83.592V395.37h83.592V421.492z M462.367,353.574h33.959v26.122h-33.959V353.574z M363.102,353.574h83.592v26.122
	h-83.592V353.574z M347.429,379.696h-83.592v-26.122h83.592V379.696z M248.163,309.551h-83.592v-32.653h83.592V309.551z
	 M248.163,235.102h-83.592v-32.653h83.592V235.102z M297.796,158.425h-33.959v-26.122h33.959V158.425z M397.061,158.425h-83.592
	v-26.122h83.592V158.425z M496.327,158.425h-83.592v-26.122h83.592V158.425z M462.367,116.629V90.507h33.959v26.122H462.367z"/>
<g>
</g>
<g>
</g>
<g>
</g>
<g>
</g>
<g>
</g>
<g>
</g>
<g>
</g>
<g>
</g>
<g>
</g>
<g>
</g>
<g>
</g>
<g>
</g>
<g>
</g>
<g>
</g>
<g>
</g>
</svg>
