<?xml version="1.0" encoding="iso-8859-1"?>
<!-- Generator: Adobe Illustrator 19.0.0, SVG Export Plug-In . SVG Version: 6.00 Build 0)  -->
<svg version="1.1" id="Capa_1" xmlns="http://www.w3.org/2000/svg" xmlns:xlink="http://www.w3.org/1999/xlink" x="0px" y="0px"
	 viewBox="0 0 512 512" style="enable-background:new 0 0 512 512;" xml:space="preserve">
<rect x="125.388" y="80.98" style="fill:#FFDA44;" width="261.224" height="423.184"/>
<rect x="125.388" y="80.98" style="fill:#EEBF00;" width="261.224" height="214.204"/>
<rect x="214.204" y="359.184" style="fill:#E2472D;" width="83.592" height="83.592"/>
<g>
	<rect x="248.163" y="408.816" style="fill:#FFFFFF;" width="15.673" height="15.673"/>
	<rect x="248.163" y="377.469" style="fill:#FFFFFF;" width="15.673" height="15.673"/>
</g>
<rect x="99.265" y="7.837" style="fill:#FFDA44;" width="313.469" height="73.143"/>
<rect x="156.735" y="80.98" style="fill:#FFFFFF;" width="198.531" height="214.204"/>
<rect x="188.082" y="327.837" style="fill:#FF6243;" width="135.837" height="31.347"/>
<circle style="fill:#3FC378;" cx="256" cy="259.918" r="15.673"/>
<rect x="240.327" y="112.327" style="fill:#57565C;" width="31.347" height="47.02"/>
<rect x="156.735" y="31.347" style="fill:#FFFFFF;" width="198.531" height="26.122"/>
<circle style="fill:#FFDA44;" cx="177.633" cy="232.49" r="20.898"/>
<path style="fill:#EEBF00;" d="M186.221,213.453c1.185,2.623,1.861,5.523,1.861,8.588c0,11.542-9.356,20.898-20.898,20.898
	c-3.065,0-5.966-0.676-8.588-1.861c3.278,7.254,10.56,12.31,19.037,12.31c11.542,0,20.898-9.356,20.898-20.898
	C198.531,224.013,193.474,216.731,186.221,213.453z"/>
<circle style="fill:#FF6243;" cx="198.531" cy="274.286" r="20.898"/>
<path style="fill:#E2472D;" d="M207.119,255.249c1.185,2.623,1.861,5.523,1.861,8.588c0,11.542-9.356,20.898-20.898,20.898
	c-3.065,0-5.966-0.676-8.588-1.861c3.278,7.254,10.56,12.31,19.037,12.31c11.542,0,20.898-9.356,20.898-20.898
	C219.429,265.808,214.372,258.527,207.119,255.249z"/>
<circle style="fill:#6D2C93;" cx="313.469" cy="274.286" r="20.898"/>
<path style="fill:#50206C;" d="M322.057,255.249c1.185,2.623,1.861,5.523,1.861,8.588c0,11.542-9.356,20.898-20.898,20.898
	c-3.065,0-5.966-0.676-8.588-1.861c3.278,7.254,10.56,12.31,19.037,12.31c11.542,0,20.898-9.356,20.898-20.898
	C334.367,265.808,329.311,258.527,322.057,255.249z"/>
<path d="M420.571,0H91.429v88.816h26.122V512h276.898V88.816h26.122V0z M198.531,287.347c-7.202,0-13.061-5.859-13.061-13.061
	s5.859-13.061,13.061-13.061c7.202,0,13.061,5.859,13.061,13.061S205.733,287.347,198.531,287.347z M164.571,258.071
	c2.645,1.356,5.522,2.318,8.56,2.798c-2.125,4.008-3.335,8.572-3.335,13.417c0,4.702,1.142,9.14,3.154,13.061h-8.378V258.071z
	 M177.633,245.551c-7.202,0-13.061-5.859-13.061-13.061c0-7.202,5.859-13.061,13.061-13.061s13.061,5.859,13.061,13.061
	C190.694,239.692,184.835,245.551,177.633,245.551z M148.898,287.347h-15.673V88.816h15.673V287.347z M133.224,496.327V303.02
	h101.878v-15.673h-10.99c2.01-3.921,3.154-8.359,3.154-13.061c0-14.313-10.52-26.212-24.233-28.379
	c2.125-4.008,3.335-8.572,3.335-13.416c0-15.845-12.891-28.735-28.735-28.735c-4.702,0-9.14,1.142-13.061,3.154V88.816h83.592
	v15.673H232.49v27.153l-31.347,20.898v35.541h15.673v-27.153l15.673-10.449v16.704h47.02V150.48l15.673,10.449v27.153h15.673V152.54
	l-31.347-20.898V104.49h-15.673V88.816h83.592v198.531h-8.378c2.01-3.921,3.154-8.359,3.154-13.061
	c0-15.845-12.891-28.735-28.735-28.735s-28.735,12.89-28.735,28.735c0,4.702,1.142,9.14,3.154,13.061h-10.99v15.673h101.878v193.306
	H133.224z M263.837,120.163v31.347h-15.673v-31.347H263.837z M300.408,274.286c0-7.202,5.859-13.061,13.061-13.061
	c7.203,0,13.061,5.859,13.061,13.061s-5.859,13.061-13.061,13.061C306.267,287.347,300.408,281.488,300.408,274.286z
	 M378.775,287.347h-15.673V88.816h15.673V287.347z M404.898,73.143h-10.449H117.551h-10.449V15.673h297.796V73.143z"/>
<path d="M263.837,282.081c9.121-3.235,15.673-11.945,15.673-22.162c0-12.964-10.547-23.51-23.51-23.51
	c-12.963,0-23.51,10.546-23.51,23.51c0,10.216,6.553,18.927,15.673,22.162V320h-67.918v47.02h26.122v83.592h99.265V367.02h26.122
	V320h-67.918V282.081z M256,252.082c4.322,0,7.837,3.515,7.837,7.837c0,4.322-3.515,7.837-7.837,7.837s-7.837-3.515-7.837-7.837
	C248.163,255.597,251.678,252.082,256,252.082z M289.959,434.939h-67.918V367.02h67.918V434.939z M316.082,351.347H195.918v-15.673
	h120.163V351.347z"/>
<rect x="248.163" y="175.02" width="15.673" height="26.122"/>
<path d="M363.102,23.51H148.898v41.796h214.204V23.51z M347.429,49.633H164.571V39.184h182.857V49.633z"/>
<g>
</g>
<g>
</g>
<g>
</g>
<g>
</g>
<g>
</g>
<g>
</g>
<g>
</g>
<g>
</g>
<g>
</g>
<g>
</g>
<g>
</g>
<g>
</g>
<g>
</g>
<g>
</g>
<g>
</g>
</svg>
